<svg xmlns="http://www.w3.org/2000/svg" viewBox="0 0 64 64" fill="none">
  <rect width="64" height="64" rx="16" fill="url(#g)"/>
  <path d="M32 16c-6 0-11 4-13 9-1 3-1 6 0 9l3 7c1 2 3 4 5 5h10c2-1 4-3 5-5l3-7c1-3 1-6 0-9-2-5-7-9-13-9z" fill="#fff" opacity="0.9"/>
  <circle cx="26" cy="30" r="3" fill="#4263eb"/>
  <circle cx="38" cy="30" r="3" fill="#4263eb"/>
  <path d="M27 38c0 0 2 3 5 3s5-3 5-3" stroke="#4263eb" stroke-width="2" stroke-linecap="round"/>
  <defs>
    <linearGradient id="g" x1="0" y1="0" x2="64" y2="64">
      <stop stop-color="#5c7cfa"/>
      <stop offset="1" stop-color="#4263eb"/>
    </linearGradient>
  </defs>
</svg>
